<svg width="226" height="112" viewBox="0 0 226 112" fill="none" xmlns="http://www.w3.org/2000/svg">
<rect width="226" height="65" rx="10" fill="#3C81AF"/>
<rect x="11" y="9" width="204" height="47" rx="10" fill="#D1ECFE"/>
<path d="M61.208 43L55.896 33.88H52.376V43H49.464V20.696H56.664C58.3493 20.696 59.768 20.984 60.92 21.56C62.0933 22.136 62.968 22.9147 63.544 23.896C64.12 24.8773 64.408 25.9973 64.408 27.256C64.408 28.792 63.96 30.1467 63.064 31.32C62.1893 32.4933 60.8667 33.272 59.096 33.656L64.696 43H61.208ZM52.376 31.544H56.664C58.2427 31.544 59.4267 31.16 60.216 30.392C61.0053 29.6027 61.4 28.5573 61.4 27.256C61.4 25.9333 61.0053 24.9093 60.216 24.184C59.448 23.4587 58.264 23.096 56.664 23.096H52.376V31.544ZM67.8448 34.168C67.8448 32.376 68.2074 30.808 68.9328 29.464C69.6581 28.0987 70.6501 27.0427 71.9088 26.296C73.1888 25.5493 74.6074 25.176 76.1648 25.176C77.7008 25.176 79.0341 25.5067 80.1648 26.168C81.2954 26.8293 82.1381 27.6613 82.6928 28.664V25.464H85.6368V43H82.6928V39.736C82.1168 40.76 81.2528 41.6133 80.1008 42.296C78.9701 42.9573 77.6474 43.288 76.1328 43.288C74.5754 43.288 73.1674 42.904 71.9088 42.136C70.6501 41.368 69.6581 40.2907 68.9328 38.904C68.2074 37.5173 67.8448 35.9387 67.8448 34.168ZM82.6928 34.2C82.6928 32.8773 82.4261 31.7253 81.8928 30.744C81.3594 29.7627 80.6341 29.016 79.7168 28.504C78.8208 27.9707 77.8288 27.704 76.7408 27.704C75.6528 27.704 74.6608 27.96 73.7648 28.472C72.8688 28.984 72.1541 29.7307 71.6208 30.712C71.0874 31.6933 70.8208 32.8453 70.8208 34.168C70.8208 35.512 71.0874 36.6853 71.6208 37.688C72.1541 38.6693 72.8688 39.4267 73.7648 39.96C74.6608 40.472 75.6528 40.728 76.7408 40.728C77.8288 40.728 78.8208 40.472 79.7168 39.96C80.6341 39.4267 81.3594 38.6693 81.8928 37.688C82.4261 36.6853 82.6928 35.5227 82.6928 34.2ZM99.1018 25.144C101.235 25.144 102.963 25.7947 104.286 27.096C105.608 28.376 106.27 30.232 106.27 32.664V43H103.39V33.08C103.39 31.3307 102.952 29.9973 102.078 29.08C101.203 28.1413 100.008 27.672 98.4938 27.672C96.9578 27.672 95.7311 28.152 94.8138 29.112C93.9178 30.072 93.4698 31.4693 93.4698 33.304V43H90.5578V25.464H93.4698V27.96C94.0458 27.064 94.8244 26.3707 95.8058 25.88C96.8084 25.3893 97.9071 25.144 99.1018 25.144ZM120.819 43L113.939 35.256V43H111.027V19.32H113.939V33.24L120.691 25.464H124.755L116.499 34.2L124.787 43H120.819ZM128.423 43.192C127.869 43.192 127.399 43 127.015 42.616C126.631 42.232 126.439 41.7627 126.439 41.208C126.439 40.6533 126.631 40.184 127.015 39.8C127.399 39.416 127.869 39.224 128.423 39.224C128.957 39.224 129.405 39.416 129.767 39.8C130.151 40.184 130.343 40.6533 130.343 41.208C130.343 41.7627 130.151 42.232 129.767 42.616C129.405 43 128.957 43.192 128.423 43.192ZM128.423 29.496C127.869 29.496 127.399 29.304 127.015 28.92C126.631 28.536 126.439 28.0667 126.439 27.512C126.439 26.9573 126.631 26.488 127.015 26.104C127.399 25.72 127.869 25.528 128.423 25.528C128.957 25.528 129.405 25.72 129.767 26.104C130.151 26.488 130.343 26.9573 130.343 27.512C130.343 28.0667 130.151 28.536 129.767 28.92C129.405 29.304 128.957 29.496 128.423 29.496ZM142.007 40.664C144.716 38.488 146.839 36.7067 148.375 35.32C149.911 33.912 151.202 32.4507 152.247 30.936C153.314 29.4 153.847 27.896 153.847 26.424C153.847 25.0373 153.506 23.9493 152.823 23.16C152.162 22.3493 151.084 21.944 149.591 21.944C148.14 21.944 147.01 22.4027 146.199 23.32C145.41 24.216 144.983 25.4213 144.919 26.936H142.103C142.188 24.5467 142.914 22.7013 144.279 21.4C145.644 20.0987 147.404 19.448 149.559 19.448C151.756 19.448 153.495 20.056 154.775 21.272C156.076 22.488 156.727 24.1627 156.727 26.296C156.727 28.0667 156.194 29.7947 155.127 31.48C154.082 33.144 152.887 34.616 151.543 35.896C150.199 37.1547 148.482 38.6267 146.391 40.312H157.399V42.744H142.007V40.664ZM160.413 40.664C163.123 38.488 165.245 36.7067 166.781 35.32C168.317 33.912 169.608 32.4507 170.653 30.936C171.72 29.4 172.253 27.896 172.253 26.424C172.253 25.0373 171.912 23.9493 171.229 23.16C170.568 22.3493 169.491 21.944 167.997 21.944C166.547 21.944 165.416 22.4027 164.605 23.32C163.816 24.216 163.389 25.4213 163.325 26.936H160.509C160.595 24.5467 161.32 22.7013 162.685 21.4C164.051 20.0987 165.811 19.448 167.965 19.448C170.163 19.448 171.901 20.056 173.181 21.272C174.483 22.488 175.133 24.1627 175.133 26.296C175.133 28.0667 174.6 29.7947 173.533 31.48C172.488 33.144 171.293 34.616 169.949 35.896C168.605 37.1547 166.888 38.6267 164.797 40.312H175.805V42.744H160.413V40.664Z" fill="black"/>
<path d="M111.207 80.3778C111.942 81.8617 114.058 81.8617 114.793 80.3778L121.964 65.8871C122.621 64.5578 121.654 63 120.171 63H105.829C104.346 63 103.379 64.5578 104.036 65.8871L111.207 80.3778Z" fill="#3C81AF"/>
<circle cx="113" cy="98" r="14" fill="#3C81AF"/>
</svg>
